<?xml version="1.0" standalone="no"?>
<!DOCTYPE svg PUBLIC "-//W3C//DTD SVG 1.1//EN" "http://www.w3.org/Graphics/SVG/1.1/DTD/svg11.dtd" >
<svg xmlns="http://www.w3.org/2000/svg">
<metadata></metadata>
<defs>
<font id="EngraversGothicBTRegular" horiz-adv-x="1024" >
<font-face units-per-em="2048" ascent="1638" descent="-410" />
<missing-glyph horiz-adv-x="682" />
<glyph horiz-adv-x="0" />
<glyph horiz-adv-x="2048" />
<glyph unicode=" "  horiz-adv-x="682" />
<glyph unicode="&#x09;" horiz-adv-x="682" />
<glyph unicode="&#xa0;" horiz-adv-x="682" />
<glyph unicode="!" horiz-adv-x="682" d="M258 61q0 40 24.5 66.5t59.5 26.5t58.5 -26t23.5 -67q0 -39 -23.5 -64.5t-58.5 -25.5q-36 0 -60 25.5t-24 64.5zM266 1104h152l-17 -817h-118z" />
<glyph unicode="&#x22;" horiz-adv-x="569" d="M98 881v553h101v-553h-101zM371 881v553h102v-553h-102z" />
<glyph unicode="#" horiz-adv-x="1575" d="M117 479l39 109h325l101 276h-353l35 107h354l173 483h127l-168 -483h264l172 483h127l-170 -483h315l-37 -107h-317l-98 -276h340l-37 -109h-340l-170 -479h-129l172 479h-269l-172 -479h-127l170 479h-327zM612 588h267l96 276h-266z" />
<glyph unicode="$" horiz-adv-x="1366" d="M178 158l76 110q87 -68 181 -109.5t190 -56.5v410q-196 11 -299 80t-103 190q0 126 111.5 208t289.5 85l1 164h116v-174q113 -19 208.5 -59t183.5 -105l-70 -104q-78 60 -156.5 96t-165.5 51l1 -315q210 -5 329 -90.5t119 -229.5t-126 -241t-323 -97v-233h-116v239 q-127 14 -236.5 58.5t-210.5 122.5zM360 788q0 -66 65.5 -104t199.5 -49v317q-120 -6 -192.5 -51.5t-72.5 -112.5zM741 506l1 -414q143 9 227 69t84 152q0 88 -83.5 140.5t-228.5 52.5z" />
<glyph unicode="%" horiz-adv-x="1726" d="M51 756q0 137 90 228t226 91t224.5 -90t88.5 -229q0 -138 -89 -228t-224 -90t-225.5 90.5t-90.5 227.5zM182 758q0 -86 53 -143.5t132 -57.5t132.5 58t53.5 143t-53 141.5t-133 56.5t-132.5 -56t-52.5 -142zM510 0l561 1051h143l-561 -1051h-143zM1044 289q0 137 89 227 t225 90q137 0 226 -89.5t89 -227.5t-89.5 -228t-225.5 -90q-135 0 -224.5 90.5t-89.5 227.5zM1174 289q0 -86 52.5 -142.5t131.5 -56.5t132.5 57t53.5 142q0 86 -53 143t-133 57q-79 0 -131.5 -57t-52.5 -143z" />
<glyph unicode="&#x26;" horiz-adv-x="1266" d="M137 328q0 130 81 231.5t251 185.5l-303 359h725l76 -121h-518l540 -637q43 43 67 69.5t44 53.5l88 -113q-23 -32 -50 -62t-59 -58l197 -228h-176l-123 139q-112 -93 -213.5 -135.5t-214.5 -42.5q-187 0 -299.5 98t-112.5 261zM283 334q0 -105 73 -170.5t191 -65.5 q89 0 176.5 37.5t171.5 112.5l-340 399q-136 -58 -204 -136.5t-68 -176.5z" />
<glyph unicode="'" horiz-adv-x="295" d="M98 881v553h101v-553h-101z" />
<glyph unicode="(" horiz-adv-x="559" d="M117 551q0 170 65.5 309.5t206.5 267.5l66 -77q-106 -91 -155.5 -212t-49.5 -288q0 -168 49.5 -290t155.5 -212l-66 -78q-141 129 -206.5 269t-65.5 311z" />
<glyph unicode=")" horiz-adv-x="559" d="M104 49q106 90 155.5 212t49.5 290q0 167 -49.5 288t-155.5 212l66 77q141 -128 206.5 -267.5t65.5 -309.5q0 -171 -65.5 -311t-206.5 -269z" />
<glyph unicode="*" d="M207 844l37 102l221 -82v240h96l-4 -240l223 78l35 -100l-235 -64l161 -194l-90 -66l-141 211l-141 -207l-88 62l159 198z" />
<glyph unicode="+" horiz-adv-x="1706" d="M254 561v98h551v562h98v-562h549v-98h-549v-561h-98v561h-551z" />
<glyph unicode="," horiz-adv-x="682" d="M248 -174q30 44 52 87t36 87h-8q-31 0 -51.5 25.5t-20.5 64.5q0 43 24.5 70.5t61.5 27.5q42 0 68 -36.5t26 -98.5q0 -55 -38 -120.5t-113 -141.5z" />
<glyph unicode="-" horiz-adv-x="526" d="M47 489v121h432v-121h-432z" />
<glyph unicode="." horiz-adv-x="682" d="M258 61q0 40 24.5 66.5t59.5 26.5t58.5 -26t23.5 -67q0 -39 -23.5 -64.5t-58.5 -25.5q-36 0 -60 25.5t-24 64.5z" />
<glyph unicode="/" horiz-adv-x="569" d="M-39 -190l526 1318h121l-526 -1318h-121z" />
<glyph unicode="0" horiz-adv-x="1366" d="M76 522q0 239 171 396t435 157q265 0 436.5 -157t171.5 -396q0 -238 -171.5 -394.5t-436.5 -156.5t-435.5 156.5t-170.5 394.5zM217 522q0 -181 132 -302.5t333 -121.5q202 0 333.5 121t131.5 303q0 184 -131 304t-334 120t-334 -120t-131 -304z" />
<glyph unicode="1" horiz-adv-x="1366" d="M612 -6v1061h140v-1061h-140z" />
<glyph unicode="2" horiz-adv-x="1366" d="M236 131q0 169 69 258t240 150q59 20 161 54q308 103 308 189q0 71 -73 117.5t-187 46.5q-99 0 -202.5 -39.5t-223.5 -124.5l-82 107q123 95 245 140.5t250 45.5q184 0 300 -83.5t116 -211.5q0 -170 -383 -298q-33 -12 -49 -17q-235 -79 -292.5 -134t-57.5 -151 q0 -9 0.5 -19.5t3.5 -33.5h799v-127h-938q-1 36 -2.5 80t-1.5 51z" />
<glyph unicode="3" horiz-adv-x="1366" d="M117 215l86 104q131 -119 248.5 -170t259.5 -51q172 0 285.5 67.5t113.5 162.5q0 94 -86.5 140t-263.5 46h-47v127q12 -1 27 -1.5t42 -0.5q129 0 188.5 34t59.5 107q0 74 -73 120t-195 46q-109 0 -215 -38t-213 -115l-82 112q113 84 244 127t272 43q184 0 293.5 -80.5 t109.5 -214.5q0 -60 -23.5 -108.5t-72.5 -85.5q88 -39 133 -103t45 -151q0 -151 -151 -256t-383 -105q-184 0 -329.5 59t-272.5 185z" />
<glyph unicode="4" horiz-adv-x="1366" d="M115 254v129l839 668h138v-668h176v-129h-176v-254h-138v254h-839zM326 383h628v500z" />
<glyph unicode="5" horiz-adv-x="1366" d="M166 166l70 117q138 -97 249.5 -140t221.5 -43q149 0 247.5 80t98.5 197q0 103 -100 170t-261 67q-94 0 -180.5 -25.5t-179.5 -80.5h-86v543h850v-129h-713v-234q88 29 163.5 42t145.5 13q225 0 364.5 -107t139.5 -276q0 -164 -140.5 -276.5t-355.5 -112.5 q-139 0 -271 48.5t-263 146.5z" />
<glyph unicode="6" horiz-adv-x="1366" d="M119 530q0 241 168.5 393t437.5 152q137 0 253 -43.5t226 -136.5l-80 -96q-90 72 -190.5 109.5t-202.5 37.5q-187 0 -309.5 -89t-147.5 -243q124 65 237.5 95t236.5 30q228 0 375 -108t147 -275q0 -171 -138.5 -278t-365.5 -107q-282 0 -464.5 160t-182.5 399zM272 463 q19 -152 161.5 -257.5t332.5 -105.5q153 0 256.5 75t103.5 179q0 108 -108 182t-266 74q-120 0 -236.5 -35.5t-243.5 -111.5z" />
<glyph unicode="7" horiz-adv-x="1366" d="M213 922v129h1067l-741 -1051h-162l645 922h-809z" />
<glyph unicode="8" horiz-adv-x="1366" d="M156 326q0 92 48 160.5t142 111.5q-57 37 -87 86t-30 107q0 129 122 205.5t331 76.5t331 -76.5t122 -205.5q0 -58 -30 -107t-87 -86q95 -45 141.5 -111.5t46.5 -158.5q0 -163 -141 -260t-383 -97q-243 0 -384.5 96.5t-141.5 258.5zM299 326q0 -102 103.5 -164t279.5 -62 q175 0 278 61.5t103 164.5q0 105 -88 151.5t-293 46.5t-294 -47t-89 -151zM375 793q0 -66 80.5 -103t226.5 -37q149 0 229 37.5t80 106.5q0 66 -84 107.5t-225 41.5q-142 0 -224.5 -42t-82.5 -111z" />
<glyph unicode="9" horiz-adv-x="1366" d="M94 690q0 171 139.5 278t366.5 107q282 0 464.5 -160t182.5 -399q0 -240 -168.5 -392.5t-437.5 -152.5q-138 0 -255 44t-226 137l82 94q89 -72 189.5 -109t203.5 -37q187 0 309.5 88.5t147.5 241.5q-122 -64 -235.5 -93.5t-238.5 -29.5q-228 0 -376 108.5t-148 274.5z M238 690q0 -108 108.5 -182t267.5 -74q118 0 233.5 36t244.5 114q-19 151 -161.5 256.5t-332.5 105.5q-152 0 -256 -75.5t-104 -180.5z" />
<glyph unicode=":" horiz-adv-x="682" d="M258 61q0 40 24.5 66.5t59.5 26.5t58.5 -26t23.5 -67q0 -39 -23.5 -64.5t-58.5 -25.5q-36 0 -60 25.5t-24 64.5zM258 637q0 39 24 64.5t60 25.5q35 0 58.5 -25t23.5 -65t-23.5 -66t-58.5 -26t-59.5 26t-24.5 66z" />
<glyph unicode=";" horiz-adv-x="682" d="M248 -174q30 44 52 87t36 87h-8q-31 0 -51.5 25.5t-20.5 64.5q0 43 24.5 70.5t61.5 27.5q42 0 68 -36.5t26 -98.5q0 -55 -38 -120.5t-113 -141.5zM258 637q0 39 24 64.5t60 25.5q35 0 58.5 -25t23.5 -65t-23.5 -66t-58.5 -26t-59.5 26t-24.5 66z" />
<glyph unicode="&#x3c;" horiz-adv-x="1706" d="M264 569v82l1178 484v-109l-1022 -416l1022 -413v-109z" />
<glyph unicode="=" horiz-adv-x="1706" d="M254 375v98h1198v-98h-1198zM254 748v98h1198v-98h-1198z" />
<glyph unicode="&#x3e;" horiz-adv-x="1706" d="M264 88v109l1022 413l-1022 416v109l1178 -484v-82z" />
<glyph unicode="?" horiz-adv-x="739" d="M55 897q31 115 115 173t219 58q138 0 217.5 -69.5t79.5 -190.5q0 -47 -18.5 -87t-59.5 -79l-174 -170q-20 -20 -30.5 -50t-10.5 -70v-144h-137v178q0 49 16 86.5t68 90.5l170 170q21 20 29 39.5t8 48.5q0 54 -44.5 88.5t-115.5 34.5q-81 0 -134.5 -40t-70.5 -114zM244 61 q0 40 24 66.5t60 26.5q35 0 59.5 -26.5t24.5 -66.5q0 -39 -24.5 -64.5t-59.5 -25.5q-36 0 -60 25.5t-24 64.5z" />
<glyph unicode="@" horiz-adv-x="2048" d="M117 537q0 204 86 381.5t252 314.5q132 109 298.5 165t360.5 56q162 0 308 -44t249 -124q129 -99 194.5 -228t65.5 -280q0 -171 -62 -309.5t-181 -232.5q-70 -54 -149 -82.5t-161 -28.5q-97 0 -144.5 37.5t-47.5 113.5q0 4 1 14t1 15q-51 -87 -127 -133.5t-168 -46.5 q-153 0 -233 83.5t-80 244.5q0 230 135 388t329 158q94 0 158 -41t96 -122l60 125h94l-139 -562q-10 -44 -13.5 -62.5t-3.5 -29.5q0 -43 28.5 -67.5t78.5 -24.5q52 0 106.5 21t104.5 61q97 77 151 204.5t54 282.5q0 254 -198 417t-509 163q-175 0 -320 -49.5t-262 -149.5 q-147 -126 -222 -290.5t-75 -362.5q0 -174 60 -305t184 -232q102 -82 244 -128t301 -46q171 0 334.5 49.5t300.5 143.5l39 -55q-147 -111 -311 -166.5t-343 -55.5q-191 0 -347 46.5t-275 138.5q-155 118 -229 273.5t-74 361.5zM702 444q0 -111 55 -173t152 -62 q107 0 189.5 71.5t111.5 188.5l62 248q-18 93 -75.5 145.5t-139.5 52.5q-154 0 -254.5 -133.5t-100.5 -337.5z" />
<glyph unicode="A" horiz-adv-x="1204" d="M0 0l541 1104h114l547 -1104h-149l-150 297h-610l-146 -297h-147zM356 426h486l-244 489z" />
<glyph unicode="B" horiz-adv-x="1337" d="M166 0v1104h653q163 0 246.5 -69.5t83.5 -205.5q0 -66 -26 -118t-74 -84q88 -51 133 -125t45 -170q0 -153 -100.5 -242.5t-272.5 -89.5h-688zM303 127h578q94 0 148 55.5t54 151.5q0 95 -54 151t-148 56h-578v-414zM303 668h528q87 0 133 39.5t46 113.5q0 78 -44.5 117 t-134.5 39h-528v-309z" />
<glyph unicode="C" horiz-adv-x="1237" d="M78 549q0 252 162 415.5t409 163.5q153 0 279 -67t205 -191l-115 -82q-52 99 -150 155t-219 56q-186 0 -308 -127.5t-122 -322.5t122 -322t308 -127q130 0 231 64t167 188l110 -82q-76 -144 -208 -221.5t-300 -77.5q-248 0 -409.5 163.5t-161.5 414.5z" />
<glyph unicode="D" horiz-adv-x="1294" d="M166 0v1104h473q261 0 420.5 -154t159.5 -401q0 -249 -157 -399t-423 -150h-473zM303 127h336q204 0 321 114.5t117 309.5q0 192 -119 309t-319 117h-336v-850z" />
<glyph unicode="E" horiz-adv-x="1118" d="M166 0v1104h868v-127h-731v-324h442v-127h-442v-399h776v-127h-913z" />
<glyph unicode="F" horiz-adv-x="1014" d="M166 0v1104h868v-127h-731v-324h442v-127h-442v-526h-137z" />
<glyph unicode="G" horiz-adv-x="1266" d="M78 549q0 252 162 415.5t409 163.5q153 0 279 -67t205 -191l-115 -82q-52 99 -150 155t-219 56q-186 0 -308 -127.5t-122 -322.5t122 -322t308 -127q116 0 206.5 50t156.5 149v162h-301v127h438v-332q-80 -138 -208.5 -211.5t-291.5 -73.5q-248 0 -409.5 163.5 t-161.5 414.5z" />
<glyph unicode="H" horiz-adv-x="1262" d="M166 0v1104h139v-436h651v436h138v-1104h-138v541h-651v-541h-139z" />
<glyph unicode="I" horiz-adv-x="473" d="M168 0v1110h139v-1110h-139z" />
<glyph unicode="J" horiz-adv-x="1100" d="M39 299v176h137v-172q0 -107 78.5 -155t255.5 -48q174 0 237.5 60t63.5 229v715h137v-752q0 -204 -107 -292.5t-356 -88.5q-227 0 -336.5 81t-109.5 247z" />
<glyph unicode="K" horiz-adv-x="1200" d="M166 0v1106h137v-551l633 551h180l-446 -393l514 -713h-166l-447 618l-268 -225v-393h-137z" />
<glyph unicode="L" d="M166 0v1104h137v-977h721v-127h-858z" />
<glyph unicode="M" horiz-adv-x="1464" d="M160 0v1104h127l446 -676l449 676h125v-1104h-136v862l-438 -653l-438 653v-862h-135z" />
<glyph unicode="N" horiz-adv-x="1255" d="M166 0v1104h72l716 -825v825h138v-1104h-70l-719 825v-825h-137z" />
<glyph unicode="O" horiz-adv-x="1298" d="M78 549q0 252 162 415.5t409 163.5q248 0 411 -164t163 -415t-162.5 -414.5t-411.5 -163.5q-248 0 -409.5 163.5t-161.5 414.5zM219 549q0 -195 122 -322t308 -127t308 127t122 322q0 196 -121.5 323t-308.5 127q-186 0 -308 -127.5t-122 -322.5z" />
<glyph unicode="P" horiz-adv-x="1200" d="M160 0v1104h633q161 0 253.5 -80t92.5 -219q0 -144 -89.5 -233t-238.5 -89h-514v-483h-137zM297 612h487q104 0 157.5 46t53.5 135q0 87 -53.5 135.5t-150.5 48.5h-494v-365z" />
<glyph unicode="Q" horiz-adv-x="1298" d="M78 549q0 252 162 415.5t409 163.5q248 0 411 -164t163 -415q0 -188 -94.5 -330t-266.5 -213l74 -151h-154l-59 120q-17 -2 -35 -3t-51 -1q-238 0 -398.5 165t-160.5 413zM219 549q0 -194 120.5 -320.5t305.5 -126.5h19l-68 142h154l55 -117q129 51 201.5 162.5 t72.5 259.5q0 195 -122 322.5t-308 127.5t-308 -127.5t-122 -322.5z" />
<glyph unicode="R" horiz-adv-x="1223" d="M160 0v1104h633q162 0 254 -81.5t92 -225.5q0 -120 -72 -205.5t-190 -106.5l276 -485h-152l-276 483h-428v-483h-137zM297 612h487q104 0 157.5 46t53.5 135q0 87 -53.5 135.5t-150.5 48.5h-494v-365z" />
<glyph unicode="S" horiz-adv-x="1223" d="M61 166l80 119q117 -91 243.5 -139t250.5 -48q153 0 248.5 65t95.5 167q0 81 -68.5 133.5t-189.5 62.5q-29 3 -84 6q-272 19 -371 64q-77 37 -117 95.5t-40 131.5q0 133 119 219t309 86q138 0 272.5 -45.5t255.5 -134.5l-80 -114q-102 82 -214.5 123.5t-231.5 41.5 q-125 0 -206 -48.5t-81 -121.5q0 -29 13 -53t40 -45q68 -51 294 -65q104 -6 161 -13q168 -19 266 -108t98 -219q0 -155 -134.5 -255t-352.5 -100q-165 0 -306.5 48t-269.5 147z" />
<glyph unicode="T" horiz-adv-x="854" d="M-106 977v127h1067v-127h-465v-977h-138v977h-464z" />
<glyph unicode="U" horiz-adv-x="1186" d="M137 352v752h137v-715q0 -172 64.5 -230.5t253.5 -58.5t253 58.5t64 230.5v715h138v-752q0 -204 -106 -292.5t-349 -88.5t-349 88.5t-106 292.5z" />
<glyph unicode="V" horiz-adv-x="1124" d="M-14 1104h149l426 -885l426 885h152l-535 -1104h-86z" />
<glyph unicode="W" horiz-adv-x="1475" d="M-12 1104h135l274 -852l281 852h123l280 -850l275 850h131l-359 -1104h-100l-291 889l-288 -889h-101z" />
<glyph unicode="X" horiz-adv-x="1124" d="M29 0l450 555l-444 549h168l362 -442l361 442h166l-445 -543l457 -561h-176l-367 455l-371 -455h-161z" />
<glyph unicode="Y" horiz-adv-x="930" d="M-102 1104h172l395 -436l393 436h174l-500 -553v-551h-137v553z" />
<glyph unicode="Z" horiz-adv-x="1042" d="M-4 0l745 977h-682v127h932l-729 -977h725v-127h-991z" />
<glyph unicode="[" horiz-adv-x="559" d="M115 0v1104h319v-119h-192v-866h192v-119h-319z" />
<glyph unicode="\" horiz-adv-x="569" d="M-39 1128h121l526 -1318h-121z" />
<glyph unicode="]" horiz-adv-x="559" d="M125 0v119h192v866h-192v119h321v-1104h-321z" />
<glyph unicode="^" horiz-adv-x="2048" d="M422 901l532 557h140l530 -557h-143l-457 455l-459 -455h-143z" />
<glyph unicode="_" d="M0 -383h1024v-100h-1024v100z" />
<glyph unicode="`" d="M276 1337h152l209 -350h-92z" />
<glyph unicode="a" horiz-adv-x="920" d="M-18 0l434 854h84l438 -854h-143l-111 217h-451l-110 -217h-141zM291 330h334l-166 327z" />
<glyph unicode="b" horiz-adv-x="1114" d="M147 0v852h525q130 0 197 -53.5t67 -157.5q0 -52 -21 -92.5t-61 -65.5q71 -40 107 -97.5t36 -129.5q0 -119 -79.5 -187.5t-219.5 -68.5h-551zM281 123h432q70 0 108.5 37t38.5 104q0 66 -38.5 102.5t-108.5 36.5h-432v-280zM281 528h389q64 0 96.5 25.5t32.5 75.5 t-32.5 75t-98.5 25h-387v-201z" />
<glyph unicode="c" horiz-adv-x="1128" d="M72 424q0 196 145.5 324.5t370.5 128.5q140 0 254 -52.5t184 -148.5l-106 -74q-53 73 -139.5 112.5t-192.5 39.5q-164 0 -271.5 -93.5t-107.5 -234.5t108 -234.5t271 -93.5q114 0 201 45t153 140l107 -74q-73 -115 -191.5 -175.5t-269.5 -60.5q-225 0 -370.5 127.5 t-145.5 323.5z" />
<glyph unicode="d" horiz-adv-x="1057" d="M147 0v854h379q209 0 337 -119.5t128 -310.5q0 -193 -125.5 -308.5t-339.5 -115.5h-379zM281 123h247q152 0 239 81.5t87 221.5q0 135 -90 220t-236 85h-247v-608z" />
<glyph unicode="e" horiz-adv-x="1028" d="M145 0v854h801v-125h-667v-213h438v-123h-438v-270h704v-123h-838z" />
<glyph unicode="f" horiz-adv-x="963" d="M145 0v854h789v-125h-655v-213h423v-123h-423v-393h-134z" />
<glyph unicode="g" horiz-adv-x="1176" d="M72 424q0 196 151 324.5t385 128.5q148 0 262.5 -51t190.5 -150l-103 -74q-54 71 -146.5 111.5t-203.5 40.5q-175 0 -287 -93t-112 -235t111.5 -235t287.5 -93q110 0 203.5 40t130.5 102v92h-217v123h352v-258q-74 -110 -193 -167t-276 -57q-236 0 -386 127.5t-150 323.5 z" />
<glyph unicode="h" horiz-adv-x="1157" d="M145 0v854h134v-332h600v332h133v-854h-133v397h-600v-397h-134z" />
<glyph unicode="i" horiz-adv-x="432" d="M147 0v856h136v-856h-136z" />
<glyph unicode="j" horiz-adv-x="915" d="M49 256v109h133v-91q0 -92 59 -135t185 -43q127 0 174 52t47 198v506h133v-549q0 -177 -85.5 -253.5t-284.5 -76.5q-183 0 -272 70t-89 213z" />
<glyph unicode="k" horiz-adv-x="973" d="M147 0v852h134v-379l452 379h176l-358 -303l412 -549h-150l-356 471l-176 -149v-322h-134z" />
<glyph unicode="l" horiz-adv-x="920" d="M145 0v854h134v-731h634v-123h-768z" />
<glyph unicode="m" horiz-adv-x="1214" d="M145 0v854h111l350 -500l350 500h111v-854h-133v614l-328 -475l-327 475v-614h-134z" />
<glyph unicode="n" horiz-adv-x="1038" d="M147 0v854h70l543 -600v600h131v-854h-70l-542 598v-598h-132z" />
<glyph unicode="o" horiz-adv-x="1190" d="M72 426q0 196 146.5 323.5t375.5 127.5q231 0 377.5 -127t146.5 -324q0 -196 -147 -324.5t-377 -128.5q-228 0 -375 129t-147 324zM209 426q0 -143 107.5 -235.5t277.5 -92.5q171 0 279 92.5t108 235.5q0 142 -108.5 235t-278.5 93t-277.5 -92.5t-107.5 -235.5z" />
<glyph unicode="p" horiz-adv-x="1090" d="M147 0v854h621q132 0 205.5 -62.5t73.5 -175.5q0 -107 -73 -175t-192 -68h-501v-373h-134zM281 498h487q68 0 104.5 30t36.5 86q0 55 -35 85t-100 30h-493v-231z" />
<glyph unicode="q" horiz-adv-x="1190" d="M72 426q0 196 146.5 323.5t375.5 127.5q231 0 377.5 -127t146.5 -324q0 -132 -71 -236.5t-199 -164.5l117 -142h-164l-84 100q-67 -6 -89.5 -8t-33.5 -2q-228 0 -375 129t-147 324zM209 426q0 -141 106 -234.5t269 -93.5q6 0 18 1t19 1l-86 105h161l68 -82 q103 43 160 123t57 180q0 142 -108.5 235t-278.5 93t-277.5 -92.5t-107.5 -235.5z" />
<glyph unicode="r" horiz-adv-x="1110" d="M147 0v852h588q131 0 205 -63t74 -175q0 -91 -58.5 -157.5t-152.5 -81.5l237 -375h-145l-242 373h-372v-373h-134zM281 498h454q69 0 105.5 30t36.5 86t-36.5 85.5t-105.5 29.5h-454v-231z" />
<glyph unicode="s" horiz-adv-x="1014" d="M72 109l65 112q88 -59 192 -92t199 -33q114 0 184 46.5t70 119.5t-64 108.5t-202 39.5q-233 3 -320 54t-87 169q0 110 95.5 177t256.5 67q110 0 213.5 -31t199.5 -92l-67 -111q-80 54 -172 83.5t-176 29.5q-97 0 -156 -34t-59 -89q0 -57 59.5 -81t206.5 -24 q204 0 308 -69t104 -205q0 -121 -105.5 -201t-273.5 -80q-124 0 -246.5 35.5t-224.5 100.5z" />
<glyph unicode="t" horiz-adv-x="829" d="M-12 735v119h854v-119h-361v-735h-133v735h-360z" />
<glyph unicode="u" horiz-adv-x="1139" d="M147 270v582h134v-547q0 -123 58 -166t230 -43q173 0 231 43t58 166v547h133v-582q0 -157 -99.5 -227t-324.5 -70q-224 0 -322 69t-98 228z" />
<glyph unicode="v" horiz-adv-x="967" d="M20 854h142l321 -639l316 639h147l-428 -854h-69z" />
<glyph unicode="w" horiz-adv-x="1255" d="M18 854h132l208 -625l215 625h111l215 -625l209 625h131l-287 -854h-96l-227 657l-228 -657h-94z" />
<glyph unicode="x" horiz-adv-x="924" d="M20 0l359 428l-354 426h161l275 -328l274 328h164l-356 -422l360 -432h-162l-280 334l-283 -334h-158z" />
<glyph unicode="y" horiz-adv-x="915" d="M2 854h172l283 -303l278 303h178l-391 -416v-438h-131v436z" />
<glyph unicode="z" horiz-adv-x="895" d="M35 0l553 729h-504v125h750l-558 -731h553v-123h-794z" />
<glyph unicode="{" d="M174 477v109q9 0 23.5 -1t21.5 -1q138 0 195 63t57 217v242q0 223 70 297t266 74h47v-107h-37q-131 0 -177 -49.5t-46 -204.5v-242q0 -168 -43.5 -240t-153.5 -104q110 -31 153.5 -103t43.5 -241v-241q0 -155 45 -204.5t170 -49.5q7 0 22 1t23 1v-107h-47 q-197 0 -266.5 72.5t-69.5 296.5v244q0 154 -57 217t-195 63q-7 0 -21.5 -1t-23.5 -1z" />
<glyph unicode="|" d="M459 -483v2048h108v-2048h-108z" />
<glyph unicode="}" d="M172 -307h39q130 0 175.5 49t45.5 203v241q0 171 43 242t154 102q-111 32 -154 103t-43 241v242q0 157 -45 206.5t-170 49.5q-7 0 -22 -1t-23 -1v107h47q196 0 266 -74t70 -297v-242q0 -154 57 -217t195 -63q7 0 22 1t23 1v-109q-8 0 -23 1t-22 1q-138 0 -195 -63 t-57 -217v-244q0 -223 -69.5 -296t-266.5 -73h-47v107z" />
<glyph unicode="~" horiz-adv-x="1706" d="M178 471v113q106 73 202 109t185 36q104 0 272 -61q11 -4 18 -7q9 -3 31 -11q167 -60 257 -60q85 0 177 38t210 122v-113q-102 -72 -198 -107.5t-189 -35.5q-99 0 -260 57q-20 7 -29 10q-5 2 -16 6q-176 64 -273 64q-83 0 -175 -38t-212 -122z" />
<glyph unicode="&#xa1;" horiz-adv-x="682" d="M258 1038q0 40 24 65t60 25q35 0 58.5 -25t23.5 -65t-23.5 -66t-58.5 -26t-59.5 26.5t-24.5 65.5zM266 0l17 813h118l17 -813h-152z" />
<glyph unicode="&#xa2;" horiz-adv-x="1366" d="M264 522q0 179 110 302.5t290 146.5v268h118v-270q105 -11 187.5 -60t140.5 -135l-109 -76q-37 61 -90.5 96.5t-128.5 49.5v-645q83 20 138 61.5t100 118.5l110 -74q-54 -100 -142 -158.5t-206 -72.5v-336h-118v334q-180 24 -290 148t-110 302zM401 522q0 -125 70.5 -211 t192.5 -110v645q-117 -20 -190 -109.5t-73 -214.5z" />
<glyph unicode="&#xa3;" horiz-adv-x="1366" d="M182 459v129h146l-11 86v5q-4 36 -4 52q0 160 108.5 252t297.5 92q127 0 249 -45.5t246 -140.5l-81 -107q-121 85 -220.5 124.5t-189.5 39.5q-125 0 -199.5 -63t-74.5 -168q0 -17 3 -62q0 -5 1 -8l6 -57h342v-129h-330l29 -332h719v-127h-981l8 127h121l-29 332h-156z " />
<glyph unicode="&#xa4;" horiz-adv-x="1241" d="M90 420l205 207q-45 61 -67.5 125.5t-22.5 132.5t22.5 133.5t67.5 126.5l-205 205l66 65l204 -205q60 46 124.5 68t136.5 22t138.5 -22.5t123.5 -67.5l204 205l66 -65l-205 -205q44 -59 66 -125t22 -135t-22 -134t-66 -124l205 -207l-66 -66l-204 205q-59 -45 -125 -67.5 t-137 -22.5t-135 22t-126 68l-204 -205zM297 887q0 -134 96 -230t230 -96q133 0 227 96t94 230q0 133 -94 227t-227 94q-134 0 -230 -94.5t-96 -226.5z" />
<glyph unicode="&#xa5;" horiz-adv-x="1290" d="M94 1073h168l383 -424l381 424h170l-285 -313h263v-92h-343l-108 -115h451v-92h-463v-461h-133v461h-461v92h446l-102 115h-344v92h260z" />
<glyph unicode="&#xa6;" d="M459 -350v758h108v-758h-108zM459 674v758h108v-758h-108z" />
<glyph unicode="&#xa7;" d="M180 514q0 64 35.5 120.5t103.5 100.5q-36 29 -53.5 66.5t-17.5 87.5q0 105 71.5 172t184.5 67q123 0 194.5 -65t71.5 -178v-8h-131q-2 62 -38.5 98.5t-96.5 36.5q-56 0 -88.5 -28t-32.5 -77q0 -38 25 -68t90 -65l190 -102q80 -43 117 -97t37 -126q0 -73 -40 -134 t-104 -86q41 -33 61.5 -74.5t20.5 -91.5q0 -104 -79 -174.5t-199 -70.5t-193 70t-73 184v4h131v-4q0 -64 39 -98.5t110 -34.5q61 0 96 29t35 79q0 46 -35.5 83t-136.5 91l-139 76q-79 43 -117.5 96.5t-38.5 120.5zM317 557q0 -41 24.5 -72t113.5 -84l170 -98q35 21 55 54.5 t20 70.5q0 42 -25.5 73t-109.5 77l-166 94q-40 -24 -61 -53t-21 -62z" />
<glyph unicode="&#xa8;" d="M262 1147q0 37 26.5 63.5t63.5 26.5t62.5 -26.5t25.5 -63.5q0 -38 -25.5 -64t-62.5 -26t-63.5 26t-26.5 64zM584 1147q0 37 25.5 63.5t62.5 26.5t63.5 -26.5t26.5 -63.5q0 -38 -26.5 -64t-63.5 -26t-62.5 26t-25.5 64z" />
<glyph unicode="&#xa9;" horiz-adv-x="1706" d="M121 723q0 145 56.5 279.5t162.5 242.5q101 103 232 157t280 54t283.5 -55.5t238.5 -159.5q102 -102 156.5 -235.5t54.5 -282.5q0 -150 -53.5 -281t-157.5 -233q-107 -106 -242 -162.5t-280 -56.5t-278 55.5t-238 161.5q-105 104 -160 237t-55 279zM201 723 q0 -129 49.5 -247t142.5 -212q94 -93 212 -142.5t247 -49.5q130 0 250.5 50t216.5 144q91 89 138.5 206t47.5 251q0 132 -48.5 251t-139.5 210q-94 94 -213 143t-252 49q-132 0 -249 -48t-208 -140q-94 -96 -144 -215.5t-50 -249.5zM469 727q0 203 107.5 326t283.5 123 q135 0 226.5 -72t103.5 -189h-117q-18 80 -75 124t-142 44q-122 0 -190 -95t-68 -267q0 -166 69 -260t189 -94q89 0 151 50.5t78 137.5h115q-11 -125 -108.5 -205t-241.5 -80q-177 0 -279 122t-102 335z" />
<glyph unicode="&#xaa;" horiz-adv-x="606" d="M-12 418l286 512h56l288 -512h-94l-73 131h-297l-72 -131h-94zM193 616h219l-109 197z" />
<glyph unicode="&#xab;" horiz-adv-x="829" d="M47 326v198l324 244v-145l-254 -197l254 -201v-141zM457 326v198l323 244v-145l-254 -197l254 -201v-141z" />
<glyph unicode="&#xac;" horiz-adv-x="1706" d="M254 758v100h1198v-502h-96v402h-1102z" />
<glyph unicode="&#xad;" horiz-adv-x="526" d="M47 489v121h432v-121h-432z" />
<glyph unicode="&#xae;" horiz-adv-x="1706" d="M121 723q0 144 56.5 279.5t162.5 242.5q101 103 232 157t280 54q152 0 285.5 -55t236.5 -160q102 -102 156.5 -235.5t54.5 -282.5q0 -150 -53.5 -281t-157.5 -233q-107 -106 -242 -162.5t-280 -56.5q-147 0 -279.5 55.5t-236.5 161.5q-105 104 -160 237t-55 279zM201 723 q0 -129 49.5 -247t142.5 -212q94 -93 212 -142.5t247 -49.5q130 0 250.5 50t216.5 144q91 89 138.5 204.5t47.5 250.5q0 134 -48 253t-138 210q-94 93 -213.5 142.5t-253.5 49.5q-130 0 -246.5 -48t-208.5 -140q-95 -97 -145.5 -216.5t-50.5 -248.5zM565 313v844h309 q178 0 263.5 -57t85.5 -176q0 -89 -54 -149t-145 -73l188 -389h-145l-178 371h-197v-371h-127zM692 768h158q134 0 188 33.5t54 113.5q0 83 -57 119.5t-185 36.5h-158v-303z" />
<glyph unicode="&#xaf;" d="M256 1087v117h512v-117h-512z" />
<glyph unicode="&#xb0;" horiz-adv-x="674" d="M59 1174q0 116 81.5 197t197.5 81q115 0 195.5 -81.5t80.5 -196.5t-81.5 -197t-196.5 -82q-117 0 -197 81t-80 198zM129 1174q0 -87 61 -147t148 -60t147 60t60 147q0 86 -60.5 147t-146.5 61t-147.5 -61t-61.5 -147z" />
<glyph unicode="&#xb1;" horiz-adv-x="1706" d="M254 51v99h1198v-99h-1198zM254 723v98h551v348h98v-348h549v-98h-549v-348h-98v348h-551z" />
<glyph unicode="&#xb2;" horiz-adv-x="901" d="M156 484v12q0 102 45.5 156t158.5 89q41 14 111 35q199 60 199 111q0 42 -48.5 70t-123.5 28q-66 0 -134.5 -24t-146.5 -74l-55 63q83 58 163 85.5t164 27.5q121 0 198 -50.5t77 -125.5q0 -103 -248 -179q-24 -8 -37 -12q-155 -46 -193 -79t-38 -91q0 -12 0.5 -19 t1.5 -13h528v-76h-620q0 31 -2 66z" />
<glyph unicode="&#xb3;" horiz-adv-x="901" d="M78 547l55 63q87 -72 164.5 -102.5t171.5 -30.5q115 0 189.5 40t74.5 97t-57.5 85t-173.5 28h-31v75q8 0 18 -0.5t27 -0.5q86 0 125 20.5t39 65.5q0 43 -48.5 70.5t-127.5 27.5q-73 0 -143 -22.5t-140 -69.5l-55 68q74 50 160.5 76t181.5 26q122 0 194 -48t72 -128 q0 -36 -16 -65.5t-47 -51.5q57 -23 86.5 -62.5t29.5 -91.5q0 -89 -100 -152t-252 -63q-123 0 -219 35.5t-178 110.5z" />
<glyph unicode="&#xb4;" d="M387 987l209 350h152l-269 -350h-92z" />
<glyph unicode="&#xb5;" horiz-adv-x="1110" d="M-111 -426l316 1491h139l-125 -592q-8 -39 -12 -73t-4 -66q0 -117 58 -180.5t167 -63.5q125 0 215 107.5t133 310.5l121 557h139l-164 -770q-12 -55 -17 -85t-5 -48q0 -33 17 -49.5t51 -16.5q7 0 16.5 0.5t19.5 1.5l-20 -110q-19 -5 -41 -8t-45 -3q-70 0 -103.5 36 t-33.5 110v14q-42 -77 -120 -119.5t-179 -42.5q-92 0 -161 40t-108 116l-114 -557h-140z" />
<glyph unicode="&#xb6;" d="M84 1130q0 157 107.5 253t285.5 96h463v-70h-127v-1409h-82v1409h-186v-1409h-84v782q-174 8 -275.5 102.5t-101.5 245.5z" />
<glyph unicode="&#xb7;" horiz-adv-x="682" d="M256 535q0 36 24 61t60 25t62 -25.5t26 -60.5q0 -36 -25.5 -61t-62.5 -25q-35 0 -59.5 25t-24.5 61z" />
<glyph unicode="&#xb8;" d="M272 -342q95 -20 146 -27.5t90 -7.5q64 0 97.5 23t33.5 67q0 55 -34.5 80t-108.5 25q-19 0 -28.5 -0.5t-18.5 -1.5v184h63v-111h20q106 0 162 -44t56 -128q0 -85 -58 -130.5t-168 -45.5q-54 0 -111.5 9t-140.5 32v76z" />
<glyph unicode="&#xb9;" horiz-adv-x="901" d="M403 414v637h93v-637h-93z" />
<glyph unicode="&#xba;" horiz-adv-x="784" d="M47 674q0 117 96.5 193.5t247.5 76.5q153 0 249.5 -76t96.5 -194q0 -119 -96.5 -196t-249.5 -77q-150 0 -247 77.5t-97 195.5zM137 674q0 -86 71 -141.5t183 -55.5q114 0 185 55.5t71 141.5q0 85 -71.5 140.5t-184.5 55.5q-112 0 -183 -55.5t-71 -140.5z" />
<glyph unicode="&#xbb;" horiz-adv-x="829" d="M49 84v141l254 201l-254 197v145l324 -244v-198zM461 84v141l252 201l-252 197v145l321 -244v-198z" />
<glyph unicode="&#xbc;" horiz-adv-x="2062" d="M385 455v594h88v-594h-88zM518 -29l887 1102h137l-885 -1102h-139zM1274 141v74l530 373h86v-373h111v-74h-111v-141h-86v141h-530zM1407 215h397v279z" />
<glyph unicode="&#xbd;" horiz-adv-x="2062" d="M385 455v594h88v-594h-88zM518 -29l887 1102h137l-885 -1102h-139zM1350 74q0 93 44 143.5t152 83.5q38 12 103 32q192 57 192 105q0 40 -46 66t-118 26q-62 0 -127.5 -22t-140.5 -70l-51 60q76 53 152.5 78.5t158.5 25.5q116 0 189 -47t73 -119q0 -95 -246 -168 q-17 -5 -26 -8q-150 -45 -185.5 -76t-35.5 -84q0 -4 0.5 -9.5t3.5 -18.5h502v-72h-590q-1 19 -2.5 44t-1.5 30z" />
<glyph unicode="&#xbe;" horiz-adv-x="2062" d="M74 580l53 57q82 -66 157 -94.5t165 -28.5q108 0 178.5 37.5t70.5 91.5q0 53 -54.5 79t-164.5 26h-30v69h45q80 0 117.5 19t37.5 59q0 42 -46 68t-124 26q-68 0 -134.5 -21t-133.5 -65l-53 64q71 46 154 70t171 24q117 0 185.5 -45t68.5 -121q0 -33 -14.5 -59.5 t-44.5 -49.5q56 -21 84.5 -56.5t28.5 -84.5q0 -85 -96 -144t-242 -59q-116 0 -207.5 33.5t-171.5 104.5zM518 -29l887 1102h137l-885 -1102h-139zM1274 141v74l530 373h86v-373h111v-74h-111v-141h-86v141h-530zM1407 215h397v279z" />
<glyph unicode="&#xbf;" horiz-adv-x="739" d="M53 231q0 47 19 87.5t59 78.5l174 170q21 21 31 51t10 70v143h137v-178q0 -49 -15.5 -86.5t-68.5 -89.5l-170 -170q-20 -20 -28 -39.5t-8 -48.5q0 -54 44 -88.5t115 -34.5q82 0 135 40t70 114l127 -47q-31 -116 -114 -174t-218 -58q-138 0 -218.5 70.5t-80.5 189.5z M328 1038q0 40 24 65t60 25q35 0 59.5 -25t24.5 -65q0 -39 -24.5 -65.5t-59.5 -26.5q-36 0 -60 26.5t-24 65.5z" />
<glyph unicode="&#xc0;" horiz-adv-x="1204" d="M0 0l541 1104h114l547 -1104h-149l-150 297h-610l-146 -297h-147zM356 426h486l-244 489zM366 1589h152l209 -350h-92z" />
<glyph unicode="&#xc1;" horiz-adv-x="1204" d="M0 0l541 1104h114l547 -1104h-149l-150 297h-610l-146 -297h-147zM356 426h486l-244 489zM477 1239l209 350h152l-269 -350h-92z" />
<glyph unicode="&#xc2;" horiz-adv-x="1204" d="M0 0l541 1104h114l547 -1104h-149l-150 297h-610l-146 -297h-147zM326 1239l200 350h152l200 -350h-92l-184 264l-184 -264h-92zM356 426h486l-244 489z" />
<glyph unicode="&#xc3;" horiz-adv-x="1204" d="M0 0l541 1104h114l547 -1104h-149l-150 297h-610l-146 -297h-147zM313 1299q22 88 72 135t123 47q16 0 29 -2t24 -6l96 -31q16 -6 31 -9t25 -3q32 0 55 17.5t41 55.5h82q-26 -91 -74 -136.5t-117 -45.5q-13 0 -29.5 2.5t-35.5 7.5l-97 31q-16 5 -27.5 6.5t-25.5 1.5 q-29 0 -53 -18.5t-39 -52.5h-80zM356 426h486l-244 489z" />
<glyph unicode="&#xc4;" horiz-adv-x="1204" d="M0 0l541 1104h114l547 -1104h-149l-150 297h-610l-146 -297h-147zM352 1399q0 37 26.5 63.5t63.5 26.5t62.5 -26.5t25.5 -63.5q0 -38 -25.5 -64t-62.5 -26t-63.5 26t-26.5 64zM356 426h486l-244 489zM674 1399q0 37 25.5 63.5t62.5 26.5t63.5 -26.5t26.5 -63.5 q0 -38 -26.5 -64t-63.5 -26t-62.5 26t-25.5 64z" />
<glyph unicode="&#xc5;" horiz-adv-x="1204" d="M0 0l541 1104h114l547 -1104h-149l-150 297h-610l-146 -297h-147zM356 426h486l-244 489zM358 1456q0 100 70.5 170t171.5 70q100 0 170 -70t70 -170t-70 -171t-170 -71q-101 0 -171.5 71t-70.5 171zM449 1456q0 -63 44 -107t107 -44q62 0 106 44t44 107q0 62 -44 106 t-106 44q-63 0 -107 -43.5t-44 -106.5z" />
<glyph unicode="&#xc6;" horiz-adv-x="1759" d="M-51 0l641 1104h1126v-127h-731v-324h445v-127h-445v-399h778v-127h-915v297h-580l-174 -297h-145zM340 426h508v551h-186z" />
<glyph unicode="&#xc7;" horiz-adv-x="1237" d="M78 549q0 252 162 415.5t409 163.5q153 0 279 -67t205 -191l-115 -82q-52 99 -150 155t-219 56q-186 0 -308 -127.5t-122 -322.5t122 -322t308 -127q130 0 231 64t167 188l110 -82q-76 -144 -208 -221.5t-300 -77.5q-248 0 -409.5 163.5t-161.5 414.5zM405 -342 q95 -20 146 -27.5t90 -7.5q64 0 97.5 23t33.5 67q0 55 -34.5 80t-108.5 25q-19 0 -28.5 -0.5t-18.5 -1.5v184h63v-111h20q106 0 162 -44t56 -128q0 -85 -58 -130.5t-168 -45.5q-54 0 -111.5 9t-140.5 32v76z" />
<glyph unicode="&#xc8;" horiz-adv-x="1118" d="M166 0v1104h868v-127h-731v-324h442v-127h-442v-399h776v-127h-913zM380 1589h152l209 -350h-92z" />
<glyph unicode="&#xc9;" horiz-adv-x="1118" d="M166 0v1104h868v-127h-731v-324h442v-127h-442v-399h776v-127h-913zM491 1239l209 350h152l-269 -350h-92z" />
<glyph unicode="&#xca;" horiz-adv-x="1118" d="M166 0v1104h868v-127h-731v-324h442v-127h-442v-399h776v-127h-913zM340 1239l200 350h152l200 -350h-92l-184 264l-184 -264h-92z" />
<glyph unicode="&#xcb;" horiz-adv-x="1118" d="M166 0v1104h868v-127h-731v-324h442v-127h-442v-399h776v-127h-913zM366 1399q0 37 26.5 63.5t63.5 26.5t62.5 -26.5t25.5 -63.5q0 -38 -25.5 -64t-62.5 -26t-63.5 26t-26.5 64zM688 1399q0 37 25.5 63.5t62.5 26.5t63.5 -26.5t26.5 -63.5q0 -38 -26.5 -64t-63.5 -26 t-62.5 26t-25.5 64z" />
<glyph unicode="&#xcc;" horiz-adv-x="473" d="M2 1589h152l209 -350h-92zM168 0v1110h139v-1110h-139z" />
<glyph unicode="&#xcd;" horiz-adv-x="473" d="M113 1239l209 350h152l-269 -350h-92zM168 0v1110h139v-1110h-139z" />
<glyph unicode="&#xce;" horiz-adv-x="473" d="M-38 1239l200 350h152l200 -350h-92l-184 264l-184 -264h-92zM168 0v1110h139v-1110h-139z" />
<glyph unicode="&#xcf;" horiz-adv-x="473" d="M-12 1399q0 37 26.5 63.5t63.5 26.5t62.5 -26.5t25.5 -63.5q0 -38 -25.5 -64t-62.5 -26t-63.5 26t-26.5 64zM168 0v1110h139v-1110h-139zM310 1399q0 37 25.5 63.5t62.5 26.5t63.5 -26.5t26.5 -63.5q0 -38 -26.5 -64t-63.5 -26t-62.5 26t-25.5 64z" />
<glyph unicode="&#xd0;" horiz-adv-x="1370" d="M2 547v115h238v442h473q260 0 419.5 -154t159.5 -401q0 -249 -157 -399t-422 -150h-473v547h-238zM377 127h336q204 0 321 114.5t117 309.5q0 192 -119.5 309t-318.5 117h-336v-315h387v-115h-387v-420z" />
<glyph unicode="&#xd1;" horiz-adv-x="1255" d="M166 0v1104h72l716 -825v825h138v-1104h-70l-719 825v-825h-137zM340 1299q22 88 72 135t123 47q16 0 29 -2t24 -6l96 -31q16 -6 31 -9t25 -3q32 0 55 17.5t41 55.5h82q-26 -91 -74 -136.5t-117 -45.5q-13 0 -29.5 2.5t-35.5 7.5l-97 31q-16 5 -27.5 6.5t-25.5 1.5 q-29 0 -53 -18.5t-39 -52.5h-80z" />
<glyph unicode="&#xd2;" horiz-adv-x="1298" d="M78 549q0 252 162 415.5t409 163.5q248 0 411 -164t163 -415t-162.5 -414.5t-411.5 -163.5q-248 0 -409.5 163.5t-161.5 414.5zM219 549q0 -195 122 -322t308 -127t308 127t122 322q0 196 -121.5 323t-308.5 127q-186 0 -308 -127.5t-122 -322.5zM413 1589h152l209 -350 h-92z" />
<glyph unicode="&#xd3;" horiz-adv-x="1298" d="M78 549q0 252 162 415.5t409 163.5q248 0 411 -164t163 -415t-162.5 -414.5t-411.5 -163.5q-248 0 -409.5 163.5t-161.5 414.5zM219 549q0 -195 122 -322t308 -127t308 127t122 322q0 196 -121.5 323t-308.5 127q-186 0 -308 -127.5t-122 -322.5zM524 1239l209 350h152 l-269 -350h-92z" />
<glyph unicode="&#xd4;" horiz-adv-x="1298" d="M78 549q0 252 162 415.5t409 163.5q248 0 411 -164t163 -415t-162.5 -414.5t-411.5 -163.5q-248 0 -409.5 163.5t-161.5 414.5zM219 549q0 -195 122 -322t308 -127t308 127t122 322q0 196 -121.5 323t-308.5 127q-186 0 -308 -127.5t-122 -322.5zM373 1239l200 350h152 l200 -350h-92l-184 264l-184 -264h-92z" />
<glyph unicode="&#xd5;" horiz-adv-x="1298" d="M78 549q0 252 162 415.5t409 163.5q248 0 411 -164t163 -415t-162.5 -414.5t-411.5 -163.5q-248 0 -409.5 163.5t-161.5 414.5zM219 549q0 -195 122 -322t308 -127t308 127t122 322q0 196 -121.5 323t-308.5 127q-186 0 -308 -127.5t-122 -322.5zM360 1299q22 88 72 135 t123 47q16 0 29 -2t24 -6l96 -31q16 -6 31 -9t25 -3q32 0 55 17.5t41 55.5h82q-26 -91 -74 -136.5t-117 -45.5q-13 0 -29.5 2.5t-35.5 7.5l-97 31q-16 5 -27.5 6.5t-25.5 1.5q-29 0 -53 -18.5t-39 -52.5h-80z" />
<glyph unicode="&#xd6;" horiz-adv-x="1298" d="M78 549q0 252 162 415.5t409 163.5q248 0 411 -164t163 -415t-162.5 -414.5t-411.5 -163.5q-248 0 -409.5 163.5t-161.5 414.5zM219 549q0 -195 122 -322t308 -127t308 127t122 322q0 196 -121.5 323t-308.5 127q-186 0 -308 -127.5t-122 -322.5zM399 1399 q0 37 26.5 63.5t63.5 26.5t62.5 -26.5t25.5 -63.5q0 -38 -25.5 -64t-62.5 -26t-63.5 26t-26.5 64zM721 1399q0 37 25.5 63.5t62.5 26.5t63.5 -26.5t26.5 -63.5q0 -38 -26.5 -64t-63.5 -26t-62.5 26t-25.5 64z" />
<glyph unicode="&#xd7;" horiz-adv-x="1706" d="M305 129l481 481l-481 482l70 69l481 -481l481 481l70 -69l-481 -482l481 -481l-70 -70l-481 482l-481 -482z" />
<glyph unicode="&#xd8;" horiz-adv-x="1298" d="M78 549q0 252 162 415.5t409 163.5q77 0 146.5 -17t138.5 -54l70 100h157l-123 -174q89 -78 137 -190.5t48 -243.5q0 -251 -162.5 -414.5t-411.5 -163.5q-77 0 -146.5 17.5t-137.5 54.5l-70 -100h-158l123 174q-88 77 -135 188.5t-47 243.5zM219 549q0 -94 29.5 -171 t93.5 -151l516 721q-53 27 -103.5 39t-105.5 12q-186 0 -308 -127.5t-122 -322.5zM440 150q51 -26 101.5 -38t107.5 -12q186 0 308 127t122 322q0 95 -29.5 173.5t-91.5 147.5z" />
<glyph unicode="&#xd9;" horiz-adv-x="1186" d="M137 352v752h137v-715q0 -172 64.5 -230.5t253.5 -58.5t253 58.5t64 230.5v715h138v-752q0 -204 -106 -292.5t-349 -88.5t-349 88.5t-106 292.5zM358 1589h152l209 -350h-92z" />
<glyph unicode="&#xda;" horiz-adv-x="1186" d="M137 352v752h137v-715q0 -172 64.5 -230.5t253.5 -58.5t253 58.5t64 230.5v715h138v-752q0 -204 -106 -292.5t-349 -88.5t-349 88.5t-106 292.5zM469 1239l209 350h152l-269 -350h-92z" />
<glyph unicode="&#xdb;" horiz-adv-x="1186" d="M137 352v752h137v-715q0 -172 64.5 -230.5t253.5 -58.5t253 58.5t64 230.5v715h138v-752q0 -204 -106 -292.5t-349 -88.5t-349 88.5t-106 292.5zM318 1239l200 350h152l200 -350h-92l-184 264l-184 -264h-92z" />
<glyph unicode="&#xdc;" horiz-adv-x="1186" d="M137 352v752h137v-715q0 -172 64.5 -230.5t253.5 -58.5t253 58.5t64 230.5v715h138v-752q0 -204 -106 -292.5t-349 -88.5t-349 88.5t-106 292.5zM344 1399q0 37 26.5 63.5t63.5 26.5t62.5 -26.5t25.5 -63.5q0 -38 -25.5 -64t-62.5 -26t-63.5 26t-26.5 64zM666 1399 q0 37 25.5 63.5t62.5 26.5t63.5 -26.5t26.5 -63.5q0 -38 -26.5 -64t-63.5 -26t-62.5 26t-25.5 64z" />
<glyph unicode="&#xdd;" horiz-adv-x="930" d="M-102 1104h172l395 -436l393 436h174l-500 -553v-551h-137v553zM340 1239l209 350h152l-269 -350h-92z" />
<glyph unicode="&#xde;" horiz-adv-x="1200" d="M160 0v1104h137v-215h496q162 0 254 -81.5t92 -225.5q0 -139 -90 -226.5t-238 -87.5h-514v-268h-137zM297 395h487q103 0 157 47t54 136q0 87 -53.5 135.5t-150.5 48.5h-494v-367z" />
<glyph unicode="&#xdf;" horiz-adv-x="2028" d="M72 109l65 112q88 -59 192 -92t199 -33q114 0 184 46.5t70 119.5t-64 108.5t-202 39.5q-233 3 -320 54t-87 169q0 110 95.5 177t256.5 67q110 0 213.5 -31t199.5 -92l-67 -111q-80 54 -172 83.5t-176 29.5q-97 0 -156 -34t-59 -89q0 -57 59.5 -81t206.5 -24 q204 0 308 -69t104 -205q0 -121 -105.5 -201t-273.5 -80q-124 0 -246.5 35.5t-224.5 100.5zM1086 109l65 112q88 -59 192 -92t199 -33q114 0 184 46.5t70 119.5t-64 108.5t-202 39.5q-233 3 -320 54t-87 169q0 110 95.5 177t256.5 67q110 0 213.5 -31t199.5 -92l-67 -111 q-80 54 -172 83.5t-176 29.5q-97 0 -156 -34t-59 -89q0 -57 59.5 -81t206.5 -24q204 0 308 -69t104 -205q0 -121 -105.5 -201t-273.5 -80q-124 0 -246.5 35.5t-224.5 100.5z" />
<glyph unicode="&#xe0;" horiz-adv-x="920" d="M-18 0l434 854h84l438 -854h-143l-111 217h-451l-110 -217h-141zM225 1337h152l209 -350h-92zM291 330h334l-166 327z" />
<glyph unicode="&#xe1;" horiz-adv-x="920" d="M-18 0l434 854h84l438 -854h-143l-111 217h-451l-110 -217h-141zM291 330h334l-166 327zM336 987l209 350h152l-269 -350h-92z" />
<glyph unicode="&#xe2;" horiz-adv-x="920" d="M-18 0l434 854h84l438 -854h-143l-111 217h-451l-110 -217h-141zM185 987l200 350h152l200 -350h-92l-184 264l-184 -264h-92zM291 330h334l-166 327z" />
<glyph unicode="&#xe3;" horiz-adv-x="920" d="M-18 0l434 854h84l438 -854h-143l-111 217h-451l-110 -217h-141zM172 1047q22 88 72 135t123 47q16 0 29 -2t24 -6l96 -31q16 -6 31 -9t25 -3q32 0 55 17.5t41 55.5h82q-26 -91 -74 -136.5t-117 -45.5q-13 0 -29.5 2.5t-35.5 7.5l-97 31q-16 5 -27.5 6.5t-25.5 1.5 q-29 0 -53 -18.5t-39 -52.5h-80zM291 330h334l-166 327z" />
<glyph unicode="&#xe4;" horiz-adv-x="920" d="M-18 0l434 854h84l438 -854h-143l-111 217h-451l-110 -217h-141zM211 1147q0 37 26.5 63.5t63.5 26.5t62.5 -26.5t25.5 -63.5q0 -38 -25.5 -64t-62.5 -26t-63.5 26t-26.5 64zM291 330h334l-166 327zM533 1147q0 37 25.5 63.5t62.5 26.5t63.5 -26.5t26.5 -63.5 q0 -38 -26.5 -64t-63.5 -26t-62.5 26t-25.5 64z" />
<glyph unicode="&#xe5;" horiz-adv-x="920" d="M-18 0l434 854h84l438 -854h-143l-111 217h-451l-110 -217h-141zM221 1210q0 101 69.5 170.5t170.5 69.5q100 0 171 -70t71 -170q0 -99 -71 -170t-171 -71t-170 70.5t-70 170.5zM291 330h334l-166 327zM311 1208q0 -63 43.5 -106t106.5 -43q62 0 107 43.5t45 105.5 q0 63 -45 107.5t-107 44.5q-63 0 -106.5 -44t-43.5 -108z" />
<glyph unicode="&#xe6;" horiz-adv-x="1659" d="M-16 0l491 854h1106v-125h-672v-213h437v-123h-437v-270h705v-123h-838v217h-524l-125 -217h-143zM322 330h454v399h-225z" />
<glyph unicode="&#xe7;" horiz-adv-x="1128" d="M72 424q0 196 145.5 324.5t370.5 128.5q140 0 254 -52.5t184 -148.5l-106 -74q-53 73 -139.5 112.5t-192.5 39.5q-164 0 -271.5 -93.5t-107.5 -234.5t108 -234.5t271 -93.5q114 0 201 45t153 140l107 -74q-73 -115 -191.5 -175.5t-269.5 -60.5q-225 0 -370.5 127.5 t-145.5 323.5zM325 -342q95 -20 146 -27.5t90 -7.5q64 0 97.5 23t33.5 67q0 55 -34.5 80t-108.5 25q-19 0 -28.5 -0.5t-18.5 -1.5v184h63v-111h20q106 0 162 -44t56 -128q0 -85 -58 -130.5t-168 -45.5q-54 0 -111.5 9t-140.5 32v76z" />
<glyph unicode="&#xe8;" horiz-adv-x="1028" d="M145 0v854h801v-125h-667v-213h438v-123h-438v-270h704v-123h-838zM317 1337h152l209 -350h-92z" />
<glyph unicode="&#xe9;" horiz-adv-x="1028" d="M145 0v854h801v-125h-667v-213h438v-123h-438v-270h704v-123h-838zM428 987l209 350h152l-269 -350h-92z" />
<glyph unicode="&#xea;" horiz-adv-x="1028" d="M145 0v854h801v-125h-667v-213h438v-123h-438v-270h704v-123h-838zM277 987l200 350h152l200 -350h-92l-184 264l-184 -264h-92z" />
<glyph unicode="&#xeb;" horiz-adv-x="1028" d="M145 0v854h801v-125h-667v-213h438v-123h-438v-270h704v-123h-838zM303 1147q0 37 26.5 63.5t63.5 26.5t62.5 -26.5t25.5 -63.5q0 -38 -25.5 -64t-62.5 -26t-63.5 26t-26.5 64zM625 1147q0 37 25.5 63.5t62.5 26.5t63.5 -26.5t26.5 -63.5q0 -38 -26.5 -64t-63.5 -26 t-62.5 26t-25.5 64z" />
<glyph unicode="&#xec;" horiz-adv-x="432" d="M-19 1337h152l209 -350h-92zM147 0v856h136v-856h-136z" />
<glyph unicode="&#xed;" horiz-adv-x="432" d="M92 987l209 350h152l-269 -350h-92zM147 0v856h136v-856h-136z" />
<glyph unicode="&#xee;" horiz-adv-x="432" d="M-59 987l200 350h152l200 -350h-92l-184 264l-184 -264h-92zM147 0v856h136v-856h-136z" />
<glyph unicode="&#xef;" horiz-adv-x="432" d="M-33 1147q0 37 26.5 63.5t63.5 26.5t62.5 -26.5t25.5 -63.5q0 -38 -25.5 -64t-62.5 -26t-63.5 26t-26.5 64zM147 0v856h136v-856h-136zM289 1147q0 37 25.5 63.5t62.5 26.5t63.5 -26.5t26.5 -63.5q0 -38 -26.5 -64t-63.5 -26t-62.5 26t-25.5 64z" />
<glyph unicode="&#xf0;" horiz-adv-x="1090" d="M0 403v113h180v338h381q209 0 337 -119.5t128 -310.5q0 -193 -125.5 -308.5t-339.5 -115.5h-381v403h-180zM313 123h250q152 0 239 81.5t87 221.5q0 135 -90 220t-236 85h-250v-215h262v-113h-262v-280z" />
<glyph unicode="&#xf1;" horiz-adv-x="1038" d="M147 0v854h70l543 -600v600h131v-854h-70l-542 598v-598h-132zM231 1047q22 88 72 135t123 47q16 0 29 -2t24 -6l96 -31q16 -6 31 -9t25 -3q32 0 55 17.5t41 55.5h82q-26 -91 -74 -136.5t-117 -45.5q-13 0 -29.5 2.5t-35.5 7.5l-97 31q-16 5 -27.5 6.5t-25.5 1.5 q-29 0 -53 -18.5t-39 -52.5h-80z" />
<glyph unicode="&#xf2;" horiz-adv-x="1190" d="M72 426q0 196 146.5 323.5t375.5 127.5q231 0 377.5 -127t146.5 -324q0 -196 -147 -324.5t-377 -128.5q-228 0 -375 129t-147 324zM209 426q0 -143 107.5 -235.5t277.5 -92.5q171 0 279 92.5t108 235.5q0 142 -108.5 235t-278.5 93t-277.5 -92.5t-107.5 -235.5zM360 1337 h152l209 -350h-92z" />
<glyph unicode="&#xf3;" horiz-adv-x="1190" d="M72 426q0 196 146.5 323.5t375.5 127.5q231 0 377.5 -127t146.5 -324q0 -196 -147 -324.5t-377 -128.5q-228 0 -375 129t-147 324zM209 426q0 -143 107.5 -235.5t277.5 -92.5q171 0 279 92.5t108 235.5q0 142 -108.5 235t-278.5 93t-277.5 -92.5t-107.5 -235.5zM471 987 l209 350h152l-269 -350h-92z" />
<glyph unicode="&#xf4;" horiz-adv-x="1190" d="M72 426q0 196 146.5 323.5t375.5 127.5q231 0 377.5 -127t146.5 -324q0 -196 -147 -324.5t-377 -128.5q-228 0 -375 129t-147 324zM209 426q0 -143 107.5 -235.5t277.5 -92.5q171 0 279 92.5t108 235.5q0 142 -108.5 235t-278.5 93t-277.5 -92.5t-107.5 -235.5zM320 987 l200 350h152l200 -350h-92l-184 264l-184 -264h-92z" />
<glyph unicode="&#xf5;" horiz-adv-x="1190" d="M72 426q0 196 146.5 323.5t375.5 127.5q231 0 377.5 -127t146.5 -324q0 -196 -147 -324.5t-377 -128.5q-228 0 -375 129t-147 324zM209 426q0 -143 107.5 -235.5t277.5 -92.5q171 0 279 92.5t108 235.5q0 142 -108.5 235t-278.5 93t-277.5 -92.5t-107.5 -235.5zM307 1047 q22 88 72 135t123 47q16 0 29 -2t24 -6l96 -31q16 -6 31 -9t25 -3q32 0 55 17.5t41 55.5h82q-26 -91 -74 -136.5t-117 -45.5q-13 0 -29.5 2.5t-35.5 7.5l-97 31q-16 5 -27.5 6.5t-25.5 1.5q-29 0 -53 -18.5t-39 -52.5h-80z" />
<glyph unicode="&#xf6;" horiz-adv-x="1190" d="M72 426q0 196 146.5 323.5t375.5 127.5q231 0 377.5 -127t146.5 -324q0 -196 -147 -324.5t-377 -128.5q-228 0 -375 129t-147 324zM209 426q0 -143 107.5 -235.5t277.5 -92.5q171 0 279 92.5t108 235.5q0 142 -108.5 235t-278.5 93t-277.5 -92.5t-107.5 -235.5zM346 1147 q0 37 26.5 63.5t63.5 26.5t62.5 -26.5t25.5 -63.5q0 -38 -25.5 -64t-62.5 -26t-63.5 26t-26.5 64zM668 1147q0 37 25.5 63.5t62.5 26.5t63.5 -26.5t26.5 -63.5q0 -38 -26.5 -64t-63.5 -26t-62.5 26t-25.5 64z" />
<glyph unicode="&#xf7;" horiz-adv-x="1706" d="M254 561v98h1198v-98h-1198zM748 258q0 44 31 75.5t75 31.5q45 0 76 -31t31 -76q0 -44 -31 -75t-76 -31t-75.5 31t-30.5 75zM748 963q0 44 31.5 76t74.5 32q44 0 75.5 -32t31.5 -76q0 -45 -31 -76t-76 -31t-75.5 30.5t-30.5 76.5z" />
<glyph unicode="&#xf8;" horiz-adv-x="1094" d="M63 -39l138 158q-57 66 -85 141.5t-28 165.5q0 195 130.5 323t328.5 128q72 0 134 -17t122 -53l69 84h158l-137 -160q57 -66 85 -141t28 -164q0 -195 -130.5 -324t-328.5 -129q-73 0 -134.5 17t-121.5 53l-70 -82h-158zM221 426q0 -58 16.5 -110.5t49.5 -98.5l436 498 q-39 24 -81 35.5t-95 11.5q-141 0 -233.5 -95.5t-92.5 -240.5zM373 137q39 -23 80.5 -34t93.5 -11q142 0 234.5 94.5t92.5 239.5q0 62 -16.5 114t-50.5 97z" />
<glyph unicode="&#xf9;" horiz-adv-x="1139" d="M147 270v582h134v-547q0 -123 58 -166t230 -43q173 0 231 43t58 166v547h133v-582q0 -157 -99.5 -227t-324.5 -70q-224 0 -322 69t-98 228zM333 1337h152l209 -350h-92z" />
<glyph unicode="&#xfa;" horiz-adv-x="1139" d="M147 270v582h134v-547q0 -123 58 -166t230 -43q173 0 231 43t58 166v547h133v-582q0 -157 -99.5 -227t-324.5 -70q-224 0 -322 69t-98 228zM444 987l209 350h152l-269 -350h-92z" />
<glyph unicode="&#xfb;" horiz-adv-x="1139" d="M147 270v582h134v-547q0 -123 58 -166t230 -43q173 0 231 43t58 166v547h133v-582q0 -157 -99.5 -227t-324.5 -70q-224 0 -322 69t-98 228zM293 987l200 350h152l200 -350h-92l-184 264l-184 -264h-92z" />
<glyph unicode="&#xfc;" horiz-adv-x="1139" d="M147 270v582h134v-547q0 -123 58 -166t230 -43q173 0 231 43t58 166v547h133v-582q0 -157 -99.5 -227t-324.5 -70q-224 0 -322 69t-98 228zM319 1147q0 37 26.5 63.5t63.5 26.5t62.5 -26.5t25.5 -63.5q0 -38 -25.5 -64t-62.5 -26t-63.5 26t-26.5 64zM641 1147 q0 37 25.5 63.5t62.5 26.5t63.5 -26.5t26.5 -63.5q0 -38 -26.5 -64t-63.5 -26t-62.5 26t-25.5 64z" />
<glyph unicode="&#xfd;" horiz-adv-x="915" d="M2 854h172l283 -303l278 303h178l-391 -416v-438h-131v436zM334 987l209 350h152l-269 -350h-92z" />
<glyph unicode="&#xfe;" horiz-adv-x="1090" d="M147 0v854h134v-166h487q131 0 205 -63t74 -174q0 -108 -73 -176t-192 -68h-501v-207h-134zM281 332h487q68 0 104.5 30t36.5 87q0 54 -35 84t-100 30h-493v-231z" />
<glyph unicode="&#xff;" horiz-adv-x="915" d="M2 854h172l283 -303l278 303h178l-391 -416v-438h-131v436zM209 1147q0 37 26.5 63.5t63.5 26.5t62.5 -26.5t25.5 -63.5q0 -38 -25.5 -64t-62.5 -26t-63.5 26t-26.5 64zM531 1147q0 37 25.5 63.5t62.5 26.5t63.5 -26.5t26.5 -63.5q0 -38 -26.5 -64t-63.5 -26t-62.5 26 t-25.5 64z" />
<glyph unicode="&#x152;" horiz-adv-x="2019" d="M78 549q0 252 162 415.5t409 163.5q136 0 237 -47t183 -149v172h870v-127h-731v-324h443v-127h-443v-399h777v-127h-916v166q-78 -98 -182 -146.5t-238 -48.5q-248 0 -409.5 163.5t-161.5 414.5zM219 549q0 -195 122 -322t308 -127t308 127t122 322q0 196 -121.5 323 t-308.5 127q-186 0 -308 -127.5t-122 -322.5z" />
<glyph unicode="&#x153;" horiz-adv-x="1858" d="M72 426q0 199 148.5 325t387.5 126q117 0 203.5 -32t163.5 -104v113h803v-125h-670v-213h438v-123h-438v-270h704v-123h-837v111q-79 -71 -170.5 -104.5t-210.5 -33.5q-228 0 -375 129t-147 324zM209 426q0 -143 107.5 -235.5t277.5 -92.5q171 0 279 92.5t108 235.5 q0 142 -108.5 235t-278.5 93t-277.5 -92.5t-107.5 -235.5z" />
<glyph unicode="&#x178;" horiz-adv-x="930" d="M-102 1104h172l395 -436l393 436h174l-500 -553v-551h-137v553zM215 1399q0 37 26.5 63.5t63.5 26.5t62.5 -26.5t25.5 -63.5q0 -38 -25.5 -64t-62.5 -26t-63.5 26t-26.5 64zM537 1399q0 37 25.5 63.5t62.5 26.5t63.5 -26.5t26.5 -63.5q0 -38 -26.5 -64t-63.5 -26 t-62.5 26t-25.5 64z" />
<glyph unicode="&#x2c6;" d="M236 987l200 350h152l200 -350h-92l-184 264l-184 -264h-92z" />
<glyph unicode="&#x2dc;" d="M223 1047q22 88 72 135t123 47q16 0 29 -2t24 -6l96 -31q16 -6 31 -9t25 -3q32 0 55 17.5t41 55.5h82q-26 -91 -74 -136.5t-117 -45.5q-13 0 -29.5 2.5t-35.5 7.5l-97 31q-16 5 -27.5 6.5t-25.5 1.5q-29 0 -53 -18.5t-39 -52.5h-80z" />
<glyph unicode="&#x2000;" horiz-adv-x="848" />
<glyph unicode="&#x2001;" horiz-adv-x="1696" />
<glyph unicode="&#x2002;" horiz-adv-x="848" />
<glyph unicode="&#x2003;" horiz-adv-x="1696" />
<glyph unicode="&#x2004;" horiz-adv-x="565" />
<glyph unicode="&#x2005;" horiz-adv-x="424" />
<glyph unicode="&#x2006;" horiz-adv-x="282" />
<glyph unicode="&#x2007;" horiz-adv-x="282" />
<glyph unicode="&#x2008;" horiz-adv-x="212" />
<glyph unicode="&#x2009;" horiz-adv-x="339" />
<glyph unicode="&#x200a;" horiz-adv-x="94" />
<glyph unicode="&#x2010;" horiz-adv-x="526" d="M47 489v121h432v-121h-432z" />
<glyph unicode="&#x2011;" horiz-adv-x="526" d="M47 489v121h432v-121h-432z" />
<glyph unicode="&#x2012;" horiz-adv-x="526" d="M47 489v121h432v-121h-432z" />
<glyph unicode="&#x2013;" d="M0 508v84h1024v-84h-1024z" />
<glyph unicode="&#x2014;" horiz-adv-x="2048" d="M0 508v84h2048v-84h-2048z" />
<glyph unicode="&#x2018;" horiz-adv-x="682" d="M248 864q0 57 38 124t111 140l39 -34q-31 -46 -53.5 -90t-36.5 -86h8q31 0 51.5 -26t20.5 -65q0 -42 -23.5 -69t-60.5 -27q-42 0 -68 36t-26 97z" />
<glyph unicode="&#x2019;" horiz-adv-x="682" d="M248 766q29 43 51 87t37 89h-10q-31 0 -50.5 24.5t-19.5 63.5q0 43 24.5 70.5t61.5 27.5q42 0 68 -36.5t26 -98.5q0 -55 -38 -120.5t-113 -141.5z" />
<glyph unicode="&#x201a;" horiz-adv-x="682" d="M248 -174q30 44 52 87t36 87h-8q-31 0 -51.5 25.5t-20.5 64.5q0 43 24.5 70.5t61.5 27.5q42 0 68 -36.5t26 -98.5q0 -55 -38 -120.5t-113 -141.5z" />
<glyph unicode="&#x201c;" horiz-adv-x="1014" d="M248 864q0 57 38 124t111 140l39 -34q-31 -46 -53.5 -90t-36.5 -86h8q31 0 51.5 -26t20.5 -65q0 -42 -23.5 -69t-60.5 -27q-42 0 -68 36t-26 97zM580 864q0 57 37.5 124t111.5 140l39 -34q-31 -46 -53.5 -90t-36.5 -86h8q30 0 51 -26t21 -65q0 -42 -23.5 -69t-60.5 -27 q-42 0 -68 36t-26 97z" />
<glyph unicode="&#x201d;" horiz-adv-x="1014" d="M248 766q29 43 51 87t37 89h-10q-31 0 -50.5 24.5t-19.5 63.5q0 43 24.5 70.5t61.5 27.5q42 0 68 -36.5t26 -98.5q0 -55 -38 -120.5t-113 -141.5zM580 766q29 43 51 87t37 89h-11q-30 0 -49.5 24.5t-19.5 63.5q0 43 24.5 70.5t61.5 27.5q42 0 68 -36.5t26 -98.5 q0 -55 -38 -120.5t-114 -141.5z" />
<glyph unicode="&#x201e;" horiz-adv-x="1014" d="M248 -176q29 42 51 86.5t37 89.5h-10q-31 0 -50.5 24.5t-19.5 63.5q0 43 24.5 70.5t61.5 27.5q42 0 68 -36.5t26 -98.5q0 -55 -38 -120.5t-113 -141.5zM580 -176q29 42 51 86.5t37 89.5h-11q-30 0 -49.5 24.5t-19.5 63.5q0 43 24.5 70.5t61.5 27.5q42 0 68 -36.5 t26 -98.5q0 -55 -38 -120.5t-114 -141.5z" />
<glyph unicode="&#x2022;" horiz-adv-x="1208" d="M307 762q0 123 87 209t210 86q122 0 208.5 -86.5t86.5 -208.5t-87.5 -209.5t-209.5 -87.5q-123 0 -209 87t-86 210z" />
<glyph unicode="&#x2026;" horiz-adv-x="2048" d="M258 61q0 40 24.5 66.5t59.5 26.5t58.5 -26t23.5 -67q0 -39 -23.5 -64.5t-58.5 -25.5q-36 0 -60 25.5t-24 64.5zM940 61q0 40 24.5 66.5t59.5 26.5t58.5 -26t23.5 -67q0 -39 -23.5 -64.5t-58.5 -25.5q-36 0 -60 25.5t-24 64.5zM1624 61q0 40 24.5 66.5t59.5 26.5 t58.5 -26t23.5 -67q0 -39 -23.5 -64.5t-58.5 -25.5q-36 0 -60 25.5t-24 64.5z" />
<glyph unicode="&#x202f;" horiz-adv-x="339" />
<glyph unicode="&#x2039;" horiz-adv-x="418" d="M47 326v198l324 244v-145l-254 -197l254 -201v-141z" />
<glyph unicode="&#x203a;" horiz-adv-x="418" d="M47 84v141l254 201l-254 197v145l324 -244v-198z" />
<glyph unicode="&#x205f;" horiz-adv-x="424" />
<glyph unicode="&#x2122;" horiz-adv-x="1706" d="M264 1397v57h430v-57h-172v-473h-82v473h-176zM821 924v530h117l166 -422l156 422h116v-530h-71v467l-177 -467h-49l-186 467v-467h-72z" />
<glyph unicode="&#xe000;" horiz-adv-x="855" d="M0 0v855h855v-855h-855z" />
</font>
</defs>
</svg>
